<?xml version="1.0" ?><!DOCTYPE svg  PUBLIC '-//W3C//DTD SVG 1.1//EN'  'http://www.w3.org/Graphics/SVG/1.1/DTD/svg11.dtd'><svg enable-background="new 0 0 512 512" id="Layer_1" version="1.1" viewBox="0 0 512 512" xml:space="preserve" xmlns="http://www.w3.org/2000/svg" xmlns:xlink="http://www.w3.org/1999/xlink"><g><path d="M324.8,163.7c31.5-13.8,70.6-23.7,105.8-30.7C464.1,33.7,512,3.8,512,3.8C457.6-1.5,409.5-1.1,366.9,4   c-24.1,21.4-51,48.9-65.2,76.1c0,0,3.2-29.5,15.5-67.6c-39.8,9-73.9,22.5-103.1,39.1c-17.1,37-40.2,91.3-46.4,126   c0,0-10.6-42.2-13.7-81.6c-39.9,37.6-65.7,82.2-82.4,125.9c-1.4,27.9-1.7,61.7,3.2,78.8c0,0-8.2-13.7-18-32   c-20.2,79.2-14,145.2-14,145.2c58.2,39,122.7,44.6,181.3,26.8c-23.2-32.7-56.3-62.9-56.3-62.9c29.6,0.1,68,27,93.5,48.1   c36.7-18.3,69.6-46,95.3-80.3c-40.3-46.6-141.6-60.3-141.6-60.3c43.1-12.9,126.7-12.3,180-10.3c6.1-16.5,10.7-33.6,13.6-51.4   c3.2-19.7,7-37.7,11.2-54.2C375.7,163.1,324.8,163.7,324.8,163.7z" fill="#0676B7"/><path d="M304.9,116.6c-6.3,3.5-14.1,7.8-22.9,12.7c-9,4.7-18,11.8-28.5,18.5c-10.3,7-21.8,14.2-32.6,23.6   c-5.6,4.5-11.3,9.1-17.2,13.8c-5.9,4.6-11.9,9.5-17.4,15.1c-5.7,5.4-11.5,10.9-17.3,16.4l-8.8,8.4c-2.9,2.9-5.5,6-8.3,9   c-10.9,12.3-22.8,24.2-32.7,37.8l-15.5,19.8c-4.9,6.8-9.5,13.7-14.2,20.5c-9.7,13.4-17.7,27.6-25.8,41.2   C55.9,367,49,380.7,42.5,393.6c-6,13.2-12,25.5-16.5,37.4c-4.9,11.7-8.8,22.7-12.2,32.4c-3.3,9.8-6,18.4-8,25.6   c-2,7.2-3.5,12.9-4.4,17c-0.9,3.9-1.3,6-1.3,6l34.3-46.7c0,0,0,0,0,0c2.6-8.5,5.4-17.7,9.2-27.6c3.9-11.7,9.2-23.9,14.5-37   c5.8-12.9,12-26.4,19.1-40.1c7.4-13.5,14.6-27.8,23.5-41.3c4.3-6.8,8.5-13.9,13-20.7l14.4-20c9.2-13.7,20.3-25.9,30.6-38.5   c2.6-3.1,5.1-6.3,7.8-9.3l8.4-8.6c5.5-5.7,11-11.4,16.4-16.9c5.2-5.7,10.9-10.8,16.6-15.6c5.6-4.9,11.1-9.7,16.4-14.4   c10.4-9.8,21.4-17.4,31.4-24.8c10.1-7.2,18.8-14.6,27.6-19.6c8.6-5.3,16.1-9.8,22.3-13.6c12.4-7.6,19.4-11.9,19.4-11.9   S317.6,109.6,304.9,116.6z" fill="#122B47"/></g></svg>